<?xml version="1.0" encoding="utf-8"?>
<!DOCTYPE svg PUBLIC "-//W3C//DTD SVG 1.1//EN" "http://www.w3.org/Graphics/SVG/1.1/DTD/svg11.dtd">
<svg viewBox="0, 0, 133.9972, 58.8" id="Layer_1" data-name="Layer 1" xmlns="http://www.w3.org/2000/svg" xmlns:xlink="http://www.w3.org/1999/xlink" xmlns:xml="http://www.w3.org/XML/1998/namespace" version="1.1">
  <title>Rating Icon - 37632 - Lost Ark</title>
  <defs>
    <style>.cls-1{fill:#231f20;}.cls-2{fill:#fff;}</style>
  </defs>
  <rect x="0" y="0" width="133.9972" height="58.8" id="area_back" class="cls-1" style="fill:#231F20;" />
  <rect x="1.37" y="1.58" width="26.19" height="7.36" class="cls-2" style="fill:white;" />
  <rect x="1.36" y="10.54" width="26.21" height="27.05" class="cls-2" style="fill:white;" />
  <rect x="29.16" y="1.57" width="103.2772" height="41.22" id="area_right" class="cls-2" style="fill:white;" />
  <polygon points="1.36,42.78 1.36,39.19 6.63,39.19 6.63,40.03 3.48,40.03 3.48,40.54 6.14,40.54 6.14,41.38 3.48,41.38 3.48,41.94 6.75,41.94 6.75,42.78 1.36,42.78" class="cls-2" style="fill:white;" />
  <path d="M647 402.17 A0.41 0.41 0 0 0 646.69 401.93 A1.79 1.79 0 0 0 646.14 401.86 C645.68 401.86 645.47 401.93 645.47 402.07 C645.47 402.6 649.1801 402.27 649.1801 403.57 C649.1801 404.41 647.9301 404.81 646.1801 404.81 C644.4301 404.81 643.3701 404.26 643.3201 403.61 L645.3201 403.61 A0.49 0.49 0 0 0 645.67 403.89 A1.89 1.89 0 0 0 646.27 403.98 C646.8 403.98 647.15 403.89 647.15 403.72 C647.15 403.17 643.44 403.55 643.44 402.18 C643.44 401.42 644.62 401.03 646.23 401.03 C648.02 401.03 648.84 401.54 649 402.17 z" transform="translate(-635.75, -361.93)" class="cls-2" style="fill:white;" />
  <path d="M652.32 402.68 L653.15 402.68 C653.8 402.68 654.15 402.58 654.15 402.34 C654.15 402.1 653.79 401.96 653.3 401.96 L652.3 401.96 z M652.32 403.46 L652.32 404.71 L650.2 404.71 L650.2 401.12 L653.2 401.12 C655.35 401.12 656.06 401.45 656.06 402.12 C656.06 402.53 655.73 402.88 654.97 403 C655.65 403.14 656.0699 403.22 656.0699 404 C656.0699 404.46 656.0699 404.63 656.2899 404.63 L656.2899 404.73 L654.2 404.73 A1.24 1.24 0 0 1 654.09 404.11 C654.09 403.64 653.95 403.48 652.96 403.48 z" transform="translate(-635.75, -361.93)" class="cls-2" style="fill:white;" />
  <path d="M659.52 402 L659.52 402.6 L660.4 402.6 C660.82 402.6 661.13 402.5 661.13 402.29 C661.13 402.08 660.71 402 660.26 402 z M659.52 403.25 L659.52 403.92 L660.44 403.92 C660.96 403.92 661.36 403.86 661.36 403.59 C661.36 403.32 660.87 403.25 660.19 403.25 z M657.4 404.75 L657.4 401.16 L660.4901 401.16 C661.9401 401.16 663.1 401.36 663.1 402.07 C663.1 402.44 662.66 402.71 662.2501 402.85 C662.9501 402.95 663.3301 403.29 663.3301 403.67 C663.3301 404.47 662.2301 404.75 660.55 404.75 z" transform="translate(-635.75, -361.93)" class="cls-2" style="fill:white;" />
  <polygon points="2.31,17.24 10.34,15.07 14.93,25.87 14.96,25.86 13.58,14.21 21.62,12.04 26.63,30.89 21.73,32.2 18.15,18.73 18.11,18.75 19.63,32.77 14.33,34.2 8.68,21.29 8.64,21.3 12.21,34.77 7.32,36.09 2.31,17.24" class="cls-1" style="fill:#231F20;" />
  <path d="M637.82 369.27 L637.82 365.1 L639 365.1 L639.55 367.94 L639.55 367.94 L640.14 365.1 L641.28 365.1 L641.28 369.27 L640.5601 369.27 L640.5601 366.05 L640.5601 366.05 L639.8901 369.27 L639.1901 369.27 L638.54 366.05 L638.54 366.05 L638.54 369.27 z" transform="translate(-635.75, -361.93)" class="cls-1" style="fill:#231F20;" />
  <path d="M641.62 369.27 L642.62 365.1 L643.62 365.1 L644.62 369.27 L643.84 369.27 L643.65 368.35 L642.65 368.35 L642.45 369.27 z M643 365.9 L643 365.9 L642.66 367.71 L643.36 367.71 z" transform="translate(-635.75, -361.93)" class="cls-1" style="fill:#231F20;" />
  <path d="M646.67 365.1 L646.67 365.79 L645.85 365.79 L645.85 369.27 L645.11 369.27 L645.11 365.79 L644.29 365.79 L644.29 365.1 z" transform="translate(-635.75, -361.93)" class="cls-1" style="fill:#231F20;" />
  <path d="M649.38 365.1 L649.38 368.1 A1.82 1.82 0 0 1 649.32 368.56 A1 1 0 0 1 649.12 368.97 A1.07 1.07 0 0 1 648.76 369.27 A1.41 1.41 0 0 1 648.19 369.38 A1.12 1.12 0 0 1 647.29 369.03 A1.37 1.37 0 0 1 646.99 368.1 L646.99 365.1 L647.73 365.1 L647.73 368 A1 1 0 0 0 647.85 368.55 A0.39 0.39 0 0 0 648.18 368.71 A0.4 0.4 0 0 0 648.54 368.53 A1.07 1.07 0 0 0 648.65 368 L648.65 365.1 z" transform="translate(-635.75, -361.93)" class="cls-1" style="fill:#231F20;" />
  <path d="M650.7 369.27 L650 369.27 L650 365.1 L651.36 365.1 A0.75 0.75 0 0 1 651.96 365.38 A1.24 1.24 0 0 1 652.1799 366.19 A1.42 1.42 0 0 1 652.0299 366.87 A0.68 0.68 0 0 1 651.5299 367.21 L651.5299 367.21 L651.6899 367.21 A0.72 0.72 0 0 1 651.9099 367.31 A0.94 0.94 0 0 1 652.0898 367.55 A1.1 1.1 0 0 1 652.1699 368 L652.1699 368.27 C652.1699 368.39 652.1699 368.52 652.1699 368.64 A3.27 3.27 0 0 0 652.1699 368.99 A0.8 0.8 0 0 0 652.1699 369.22 L651.4499 369.22 A1.1 1.1 0 0 1 651.3699 368.82 L651.3699 368.06 A0.84 0.84 0 0 0 651.3699 367.77 A0.35 0.35 0 0 0 651.2099 367.57 A0.56 0.56 0 0 0 650.8899 367.49 L650.6999 367.49 z M650.7 366.9 L651 366.9 A0.35 0.35 0 0 0 651.18 366.9 A0.44 0.44 0 0 0 651.3 366.75 A0.66 0.66 0 0 0 651.36 366.55 A1.49 1.49 0 0 0 651.36 366.34 A0.72 0.72 0 0 0 651.26 365.92 A0.33 0.33 0 0 0 650.98 365.79 L650.65 365.79 z" transform="translate(-635.75, -361.93)" class="cls-1" style="fill:#231F20;" />
  <path d="M652.69 369.27 L652.69 365.1 L654.61 365.1 L654.61 365.74 L653.43 365.74 L653.43 366.74 L654.52 366.74 L654.52 367.38 L653.43 367.38 L653.43 368.6 L654.65 368.6 L654.65 369.2401 z" transform="translate(-635.75, -361.93)" class="cls-1" style="fill:#231F20;" />
  <path d="M656.14 365.73 L656.5 365.45 A2.2 2.2 0 0 0 656.8 365.08 L657.45 365.08 L657.45 369.27 L656.71 369.27 L656.71 366.05 A3.2 3.2 0 0 1 656.44 366.3 L656.14 366.51 z" transform="translate(-635.75, -361.93)" class="cls-1" style="fill:#231F20;" />
  <path d="M660 365.88 L659.17 369.27 L658.41 369.27 L659.34 365.73 L658.17 365.73 L658.17 365.08 L660 365.08 z" transform="translate(-635.75, -361.93)" class="cls-1" style="fill:#231F20;" />
  <path d="M661.17 365.91 L661.72 365.91 L661.72 367.05 L662.54 367.05 L662.54 367.69 L661.72 367.69 L661.72 368.83 L661.17 368.83 L661.17 367.69 L660.35 367.69 L660.35 367.05 L661.17 367.05 z" transform="translate(-635.75, -361.93)" class="cls-1" style="fill:#231F20;" />
  <text x="31.16px" y="8.915" font-family="Arial" font-size="6.2px" font="Arial" xml:space="preserve" style="font-family:Arial;font-size:6.2px;fill:#231f20;">Violence</text>
  <text x="31.16px" y="16.715" font-family="Arial" font-size="6.2px" font="Arial" xml:space="preserve" style="font-family:Arial;font-size:6.2px;fill:#231f20;">Blood and Gore</text>
  <text x="31.16px" y="24.515" font-family="Arial" font-size="6.2px" font="Arial" xml:space="preserve" style="font-family:Arial;font-size:6.2px;fill:#231f20;">Suggestive Themes</text>
  <text x="31.16px" y="32.315" font-family="Arial" font-size="6.2px" font="Arial" xml:space="preserve" style="font-family:Arial;font-size:6.2px;fill:#231f20;">Language</text>
  <text x="31.16px" y="40.115" font-family="Arial" font-size="6.2px" font="Arial" xml:space="preserve" style="font-family:Arial;font-size:6.2px;fill:#231f20;">Use of Alcohol</text>
  <rect x="1.36" y="44.36" width="131.0772" height="12.87" class="cls-2" style="fill:white;" />
  <text x="4.241776" y="50.01" font-family="Arial" font-size="6.2px" font="Arial" xml:space="preserve" style="font-family:Arial;font-size:6.2px;fill:#231f20;">In-Game Purchases (Includes Random Items)</text>
  <text x="47.87025" y="55.81" font-family="Arial" font-size="6.2px" font="Arial" xml:space="preserve" style="font-family:Arial;font-size:6.2px;fill:#231f20;">Users Interact</text>
</svg>